HIERARCHY
ROOT Hips
{
	OFFSET 0.000000 0.000000 0.000000
	CHANNELS 6 Xposition Yposition Zposition Zrotation Yrotation Xrotation 
	JOINT LeftUpLeg_virtual
	{
		OFFSET 0.000000 0.000000 0.000000
		CHANNELS 3 Zrotation Yrotation Xrotation
		JOINT LeftUpLeg
		{
			OFFSET 10.205400 -3.823500 0.155100
			CHANNELS 3 Zrotation Yrotation Xrotation
			JOINT LeftLeg
			{
				OFFSET 0.708757 -12.982077 0.567790
				CHANNELS 3 Zrotation Yrotation Xrotation
				JOINT LeftFoot
				{
					OFFSET -0.708756 -10.717838 -2.184338
					CHANNELS 3 Zrotation Yrotation Xrotation
					JOINT LeftToeBase
					{
						OFFSET 0.108149 -7.191104 7.560241
						CHANNELS 3 Zrotation Yrotation Xrotation
						End Site
						{
							OFFSET 0.000000 0.000000 0.000000
						}
					}
				}
			}
		}
	}
	JOINT RightUpLeg_virtual
	{
		OFFSET 0.000000 0.000000 0.000000
		CHANNELS 3 Zrotation Yrotation Xrotation
		JOINT RightUpLeg
		{
			OFFSET -10.205400 -3.823500 0.005500
			CHANNELS 3 Zrotation Yrotation Xrotation
			JOINT RightLeg
			{
				OFFSET -0.708756 -12.982134 0.610632
				CHANNELS 3 Zrotation Yrotation Xrotation
				JOINT RightFoot
				{
					OFFSET 0.708754 -10.717769 -1.945823
					CHANNELS 3 Zrotation Yrotation Xrotation
					JOINT RightToeBase
					{
						OFFSET -0.108140 -7.191069 7.372968
						CHANNELS 3 Zrotation Yrotation Xrotation
						End Site
						{
							OFFSET 0.000000 0.000000 0.000000
						}
					}
				}
			}
		}
	}
	JOINT Spine_virtual
	{
		OFFSET 0.000000 0.000000 0.000000
		CHANNELS 3 Zrotation Yrotation Xrotation
		JOINT Spine
		{
			OFFSET 0.000000 6.876099 0.125700
			CHANNELS 3 Zrotation Yrotation Xrotation
			JOINT Spine1
			{
				OFFSET 0.000000 8.022060 0.146608
				CHANNELS 3 Zrotation Yrotation Xrotation
				JOINT Spine2
				{
					OFFSET 0.000000 9.168068 0.167552
					CHANNELS 3 Zrotation Yrotation Xrotation
					JOINT Neck_virtual
					{
						OFFSET 0.000000 0.000000 0.000000
						CHANNELS 3 Zrotation Yrotation Xrotation
						JOINT Neck
						{
							OFFSET 0.000000 10.314075 0.188496
							CHANNELS 3 Zrotation Yrotation Xrotation
							JOINT Head
							{
								OFFSET 0.000000 7.643700 -2.377400
								CHANNELS 3 Zrotation Yrotation Xrotation
								End Site
								{
									OFFSET 0.000000 0.000000 0.000000
								}
							}
						}
					}
					JOINT LeftShoulder_virtual
					{
						OFFSET 0.000000 0.000000 0.000000
						CHANNELS 3 Zrotation Yrotation Xrotation
						JOINT LeftShoulder
						{
							OFFSET 4.392200 8.824978 0.174984
							CHANNELS 3 Zrotation Yrotation Xrotation
							JOINT LeftArm
							{
								OFFSET 8.771219 -2.981674 -0.026999
								CHANNELS 3 Zrotation Yrotation Xrotation
								JOINT LeftForeArm
								{
									OFFSET 8.512804 0.000000 -0.000000
									CHANNELS 3 Zrotation Yrotation Xrotation
									JOINT LeftHand
									{
										OFFSET 18.484802 0.000000 -0.000000
										CHANNELS 3 Zrotation Yrotation Xrotation
										End Site
										{
											OFFSET 0.000000 0.000000 0.000000
										}
									}
								}
							}
						}
					}
					JOINT RightShoulder_virtual
					{
						OFFSET 0.000000 0.000000 0.000000
						CHANNELS 3 Zrotation Yrotation Xrotation
						JOINT RightShoulder
						{
							OFFSET -4.392200 8.824993 0.141379
							CHANNELS 3 Zrotation Yrotation Xrotation
							JOINT RightArm
							{
								OFFSET -8.771282 -2.981682 -0.094208
								CHANNELS 3 Zrotation Yrotation Xrotation
								JOINT RightForeArm
								{
									OFFSET -8.494598 0.000000 0.000000
									CHANNELS 3 Zrotation Yrotation Xrotation
									JOINT RightHand
									{
										OFFSET -18.483803 0.000000 0.000001
										CHANNELS 3 Zrotation Yrotation Xrotation
										End Site
										{
											OFFSET 0.000000 0.000000 0.000000
										}
									}
								}
							}
						}
					}
				}
			}
		}
	}
}
MOTION
Frames: 9
Frame Time: 0.033333
-22.187965 35.332924 5.920599 -179.961210 11.074692 -179.748012 -2.645696 -3.370163 8.099334 -1.389276 19.859205 -30.070990 13.145669 4.975514 27.854777 -5.150003 -1.034057 7.275973 0.000000 0.000000 0.000000 2.646555 -0.661945 7.996488 2.904035 1.233847 -15.784910 -6.130619 5.460584 20.220005 7.637323 1.583560 7.891795 0.000000 0.000000 0.000000 0.201038 0.430424 -7.356028 1.879699 3.356793 -4.977032 -1.206315 -3.519468 13.432626 0.008302 -0.062110 0.023764 -1.493196 -1.501634 16.968695 -2.456771 -5.551376 33.271716 0.000000 0.000000 0.000000 0.059805 -1.292470 12.819091 -9.982253 -14.220241 7.283048 -31.878214 -0.887327 50.381367 -135.370880 -85.969487 157.062563 0.000000 0.000000 0.000000 -3.808236 0.561159 12.456565 20.145190 18.079372 4.772595 27.621896 -7.194141 43.965866 -178.068031 70.426859 -177.560425 0.000000 0.000000 0.000000 
-22.031296 35.255596 6.109512 -179.988599 11.257790 -179.785100 -2.579651 -3.233148 7.956966 -0.984625 20.079641 -30.037697 12.922736 5.017463 27.734690 -5.447406 -0.860368 7.230878 0.000000 0.000000 0.000000 2.452154 -0.421009 8.005510 3.451854 1.403886 -16.163110 -5.863601 5.557756 20.580806 6.876672 1.515775 7.725371 0.000000 0.000000 0.000000 0.071415 0.509763 -7.156343 1.807609 3.422780 -4.977349 -1.161044 -3.571571 13.378851 -0.000008 -0.050185 0.026140 -1.448710 -1.530551 16.932761 -2.236930 -5.586570 33.236684 0.000000 0.000000 0.000000 0.099136 -1.408097 12.812774 -9.895185 -14.250338 7.396741 -31.565262 -0.721009 50.104017 -135.447159 -86.024033 157.084188 0.000000 0.000000 0.000000 -3.726942 0.472228 12.449222 20.221029 17.990266 4.698670 28.050487 -7.158477 44.133909 -177.795548 70.328136 -177.367486 0.000000 0.000000 0.000000 
-21.886314 35.176434 6.257711 179.963955 11.317458 -179.843047 -2.594943 -3.136880 7.815456 -0.445954 20.131438 -30.023790 12.769813 5.252529 27.918936 -5.930530 -0.740077 7.128566 0.000000 0.000000 0.000000 2.220501 -0.394242 8.008893 3.867453 1.627179 -16.394612 -5.513132 5.303134 20.817209 6.556148 1.302924 7.484223 0.000000 0.000000 0.000000 -0.097425 0.480546 -6.937938 1.688623 3.451808 -4.976270 -1.114242 -3.645594 13.254912 0.011886 -0.084877 0.057429 -1.371075 -1.608176 16.892752 -1.960412 -5.723445 33.216398 0.000000 0.000000 0.000000 0.163989 -1.447897 12.738340 -9.834803 -14.163873 7.483247 -31.274794 -0.523346 49.921108 -136.748775 -86.098660 158.332487 0.000000 0.000000 0.000000 -3.659983 0.434874 12.477056 20.452704 17.947664 4.628657 28.510294 -7.045305 44.138752 -177.757230 70.262996 -177.405926 0.000000 0.000000 0.000000 
-21.752119 35.115669 6.390216 -179.982356 11.603486 -179.872226 -2.507749 -3.093270 7.755969 -0.019063 20.507530 -30.061667 12.544458 5.338720 28.073589 -6.341602 -0.558254 7.178743 0.000000 0.000000 0.000000 2.116215 -0.279086 7.941689 4.308639 1.377663 -16.516967 -5.211833 5.193479 20.941983 6.205860 1.299835 7.326771 0.000000 0.000000 0.000000 -0.112451 0.445322 -6.880380 1.619863 3.558703 -4.899124 -1.071691 -3.638349 13.193286 0.036641 -0.031408 -0.000175 -1.348859 -1.586132 16.823388 -1.596399 -5.620756 33.258035 0.000000 0.000000 0.000000 0.142080 -1.451617 12.719367 -9.744661 -14.114658 7.469482 -31.087999 -0.290382 49.566136 -134.123195 -86.006391 155.666992 0.000000 0.000000 0.000000 -3.657078 0.382929 12.404383 20.705148 17.872732 4.513844 28.931216 -6.867294 44.183940 -177.748351 70.269669 -177.448752 0.000000 0.000000 0.000000 
-21.635794 35.085648 6.515611 179.939093 11.458803 -179.896746 -2.616252 -3.442336 7.720826 0.452816 20.804647 -30.180103 12.429045 5.489897 28.345811 -6.759911 -0.500034 7.239169 0.000000 0.000000 0.000000 1.950459 -0.675843 7.922581 4.635707 1.186523 -16.619334 -4.940011 5.261993 20.867891 5.841272 1.385298 7.237080 0.000000 0.000000 0.000000 -0.152137 0.247136 -6.769269 1.513494 3.599897 -4.945046 -1.083407 -3.694358 13.114899 0.018113 -0.067261 -0.009811 -1.275655 -1.714262 16.698190 -1.356420 -5.730662 33.218550 0.000000 0.000000 0.000000 0.156623 -1.504177 12.625612 -9.717082 -14.012431 7.582636 -31.096116 -0.175842 49.546052 -135.345430 -86.069256 156.863818 0.000000 0.000000 0.000000 -3.606937 0.343961 12.339077 20.918610 17.827163 4.555130 29.264051 -6.724780 44.198523 -177.366188 70.251248 -177.118253 0.000000 0.000000 0.000000 
-21.545650 35.078526 6.611669 179.994705 11.523401 -179.957590 -2.621345 -3.605257 7.786168 0.768324 21.324602 -30.358152 12.268651 5.482532 28.544885 -7.059244 -0.472886 7.393132 0.000000 0.000000 0.000000 2.006942 -0.910954 7.953532 4.861911 1.051588 -16.720206 -4.746646 5.505817 20.783842 5.511356 1.491810 7.186398 0.000000 0.000000 0.000000 -0.042210 0.127055 -6.722513 1.466846 3.704160 -4.907630 -1.016770 -3.701205 12.947751 0.023061 -0.047223 0.024882 -1.331893 -1.729337 16.638276 -1.107666 -5.708463 33.245522 0.000000 0.000000 0.000000 0.065014 -1.593563 12.553983 -9.712705 -13.945859 7.485747 -31.168660 -0.046279 49.407000 -133.396450 -85.819189 154.925998 0.000000 0.000000 0.000000 -3.713085 0.205721 12.182284 21.034206 17.800276 4.626317 29.443723 -6.655829 44.115990 -177.607704 70.202590 -177.417292 0.000000 0.000000 0.000000 
-21.471125 35.074955 6.677727 -179.934503 11.380033 -179.996808 -2.630144 -3.802683 7.922026 1.006514 21.629976 -30.626490 12.126865 5.515057 28.730713 -7.304769 -0.535828 7.535753 0.000000 0.000000 0.000000 2.080530 -1.204843 8.022261 5.015943 1.076105 -16.872799 -4.655020 5.603739 20.708249 5.217323 1.526721 7.068785 0.000000 0.000000 0.000000 0.075945 -0.040999 -6.727283 1.529834 3.726916 -4.870062 -1.120032 -3.756666 12.843950 0.025751 -0.051839 -0.006618 -1.354177 -1.790779 16.615222 -0.968789 -5.629821 33.258643 0.000000 0.000000 0.000000 0.026653 -1.615675 12.495696 -9.702792 -13.840748 7.533395 -31.349718 -0.067152 49.338971 -132.750409 -85.772279 154.289998 0.000000 0.000000 0.000000 -3.750653 0.174396 12.116663 21.067951 17.804319 4.731620 29.474944 -6.603771 44.046992 -177.598210 70.104836 -177.465745 0.000000 0.000000 0.000000 
-21.401781 35.067745 6.724206 -179.926253 11.172773 179.963450 -2.631969 -3.941347 8.109921 1.108721 21.942469 -30.909509 11.972511 5.525810 28.762606 -7.494463 -0.641481 7.752393 0.000000 0.000000 0.000000 2.141498 -1.445094 8.168067 5.099614 1.142292 -17.037552 -4.610340 5.481979 20.770913 5.048499 1.554585 6.759722 0.000000 0.000000 0.000000 0.138118 -0.139980 -6.714549 1.568368 3.749893 -4.822248 -1.161145 -3.812108 12.756732 0.034607 -0.063757 0.012767 -1.405852 -1.855257 16.530142 -0.939587 -5.513813 33.254224 0.000000 0.000000 0.000000 -0.039868 -1.681773 12.398979 -9.660128 -13.698600 7.550265 -31.493435 -0.063361 49.311121 -132.884609 -85.601900 154.452652 0.000000 0.000000 0.000000 -3.804714 0.124521 11.952735 21.003151 17.767438 4.662286 29.482580 -6.554357 44.007633 -177.686101 70.039765 -177.624247 0.000000 0.000000 0.000000 
-21.334026 35.051811 6.770247 -179.921075 10.991572 179.940268 -2.576239 -3.903916 8.249583 1.149474 22.106215 -31.207633 11.822084 5.536218 28.660351 -7.615222 -0.745336 7.936418 0.000000 0.000000 0.000000 2.183234 -1.552360 8.339162 5.160957 1.047476 -17.200255 -4.553387 5.177055 20.852388 5.043800 1.491637 6.521632 0.000000 0.000000 0.000000 0.169718 -0.200507 -6.689176 1.628059 3.727609 -4.770775 -1.213911 -3.895515 12.678884 0.014762 -0.090373 0.017002 -1.553238 -1.802270 16.447505 -1.153645 -5.511901 33.221651 0.000000 0.000000 0.000000 -0.000912 -1.695861 12.292476 -9.664221 -13.526488 7.672148 -31.667421 -0.098432 49.294998 -133.703794 -85.517554 155.308297 0.000000 0.000000 0.000000 -3.782832 0.164765 11.918703 20.930666 17.953255 4.750691 29.511301 -6.529555 43.897783 -177.512942 70.047292 -177.527886 0.000000 0.000000 0.000000 
